<?xml version="1.0" encoding="UTF-8" standalone="no"?>
<svg
   width="120px"
   height="120px"
   viewBox="0 0 120 120"
   version="1.1"
   id="svg7435"
   sodipodi:docname="emacslogo.svg"
   inkscape:version="1.2.2 (b0a8486541, 2022-12-01)"
   xmlns:inkscape="http://www.inkscape.org/namespaces/inkscape"
   xmlns:sodipodi="http://sodipodi.sourceforge.net/DTD/sodipodi-0.dtd"
   xmlns="http://www.w3.org/2000/svg"
   xmlns:svg="http://www.w3.org/2000/svg">
  <defs
     id="defs7439" />
  <sodipodi:namedview
     id="namedview7437"
     pagecolor="#ffffff"
     bordercolor="#000000"
     borderopacity="0.25"
     inkscape:showpageshadow="2"
     inkscape:pageopacity="0.0"
     inkscape:pagecheckerboard="0"
     inkscape:deskcolor="#d1d1d1"
     showgrid="false"
     inkscape:zoom="8.5583333"
     inkscape:cx="59.941577"
     inkscape:cy="60"
     inkscape:window-width="2560"
     inkscape:window-height="1411"
     inkscape:window-x="0"
     inkscape:window-y="0"
     inkscape:window-maximized="1"
     inkscape:current-layer="svg7435" />
  <g
     id="surface1"
     style="fill:#ffb3aa;fill-opacity:1">
    <path
       style="stroke:none;fill-rule:evenodd;fill:#ffb3aa;fill-opacity:1"
       d="M 40.976562 98.933594 C 40.976562 98.933594 45.601562 99.257812 51.554688 98.734375 C 53.964844 98.523438 63.113281 97.625 69.957031 96.125 C 69.957031 96.125 78.296875 94.339844 82.757812 92.695312 C 87.429688 90.972656 89.96875 89.511719 91.113281 87.441406 C 91.0625 87.019531 91.464844 85.515625 89.3125 84.613281 C 83.808594 82.304688 77.421875 82.71875 64.789062 82.453125 C 50.777344 81.972656 46.117188 79.625 43.636719 77.738281 C 41.253906 75.820312 42.453125 70.519531 52.652344 65.851562 C 57.792969 63.363281 77.933594 58.777344 77.933594 58.777344 C 71.152344 55.421875 58.5 49.527344 55.898438 48.253906 C 53.621094 47.136719 49.96875 45.457031 49.179688 43.421875 C 48.28125 41.472656 51.296875 39.789062 52.980469 39.308594 C 58.40625 37.742188 66.0625 36.769531 73.035156 36.660156 C 76.535156 36.605469 77.105469 36.378906 77.105469 36.378906 C 81.9375 35.578125 85.121094 32.273438 83.796875 27.035156 C 82.605469 21.6875 76.328125 18.546875 70.363281 19.632812 C 64.746094 20.660156 51.207031 24.589844 51.207031 24.589844 C 67.941406 24.445312 70.742188 24.726562 71.992188 26.476562 C 72.730469 27.507812 71.65625 28.925781 67.195312 29.652344 C 62.335938 30.445312 52.234375 31.402344 52.234375 31.402344 C 42.542969 31.976562 35.71875 32.015625 33.671875 36.351562 C 32.332031 39.183594 35.097656 41.6875 36.308594 43.253906 C 41.425781 48.945312 48.820312 52.015625 53.582031 54.277344 C 55.371094 55.128906 60.625 56.734375 60.625 56.734375 C 45.183594 55.886719 34.046875 60.625 27.515625 66.085938 C 20.125 72.921875 23.394531 81.066406 38.53125 86.082031 C 47.472656 89.046875 51.910156 90.441406 65.246094 89.238281 C 73.101562 88.816406 74.339844 89.066406 74.417969 89.710938 C 74.53125 90.621094 65.695312 92.875 63.28125 93.570312 C 57.144531 95.339844 41.054688 98.914062 40.976562 98.933594 Z M 40.976562 98.933594 "
       id="path7432" />
  </g>
</svg>
